<?xml version="1.0" encoding="UTF-8" standalone="no"?>
<!-- Created with Inkscape (http://www.inkscape.org/) -->

<svg
   width="63.281132mm"
   height="9.7124395mm"
   viewBox="0 0 63.281132 9.7124395"
   version="1.1"
   id="svg3004"
   xmlns="http://www.w3.org/2000/svg"
   xmlns:svg="http://www.w3.org/2000/svg">
  <defs
     id="defs3001" />
  <g
     id="layer1"
     transform="translate(-53.573118,-103.88928)">
    <path
       d="m 60.033368,108.49194 q 0,1.16307 -0.369315,2.00643 -0.369315,0.83785 -1.036286,1.31189 l 1.433161,1.12448 -0.722092,0.66698 -1.692233,-1.34497 q -0.396875,0.0992 -0.837848,0.0992 -0.948091,0 -1.681208,-0.46302 -0.733117,-0.46854 -1.141017,-1.32843 -0.402388,-0.86541 -0.413412,-2.00092 v -0.57877 q 0,-1.15756 0.402388,-2.04501 0.402387,-0.88746 1.135504,-1.35599 0.738629,-0.47405 1.686721,-0.47405 0.97014,0 1.703257,0.46853 0.738629,0.46854 1.135504,1.35048 0.396876,0.87643 0.396876,2.05052 z m -1.058335,-0.51814 q 0,-1.41662 -0.567752,-2.18281 -0.56224,-0.77171 -1.60955,-0.77171 -0.997701,0 -1.576478,0.76619 -0.573264,0.76068 -0.589801,2.11667 v 0.5898 q 0,1.37804 0.573265,2.17179 0.578776,0.79375 1.604038,0.79375 1.025261,0 1.587502,-0.74414 0.56224,-0.74965 0.578776,-2.14423 z"
       style="font-size:11.2889px;-inkscape-font-specification:Roboto;fill-rule:evenodd;stroke-width:1.19;stroke-linecap:round;stroke-linejoin:round"
       id="path2003" />
    <path
       d="m 65.187236,111.65592 q -0.595314,0.70005 -1.747355,0.70005 -0.953603,0 -1.455209,-0.55122 -0.496095,-0.55673 -0.501607,-1.64262 v -3.88056 h 1.019749 v 3.853 q 0,1.35599 1.102432,1.35599 1.168578,0 1.554429,-0.87092 v -4.33807 h 1.019749 v 5.96415 h -0.97014 z"
       style="font-size:11.2889px;-inkscape-font-specification:Roboto;fill-rule:evenodd;stroke-width:1.19;stroke-linecap:round;stroke-linejoin:round"
       id="path2005" />
    <path
       d="m 68.836285,112.24572 h -1.019749 v -5.96415 h 1.019749 z m -1.102432,-7.54614 q 0,-0.24805 0.148829,-0.41893 0.15434,-0.17087 0.451997,-0.17087 0.297656,0 0.451997,0.17087 0.15434,0.17088 0.15434,0.41893 0,0.24805 -0.15434,0.41341 -0.154341,0.16537 -0.451997,0.16537 -0.297657,0 -0.451997,-0.16537 -0.148829,-0.16536 -0.148829,-0.41341 z"
       style="font-size:11.2889px;-inkscape-font-specification:Roboto;fill-rule:evenodd;stroke-width:1.19;stroke-linecap:round;stroke-linejoin:round"
       id="path2007" />
    <path
       d="m 72.86016,111.52363 q 0.545704,0 0.953603,-0.33073 0.4079,-0.33073 0.451997,-0.82682 h 0.964628 q -0.02756,0.51263 -0.352778,0.97565 -0.325217,0.46302 -0.870921,0.73863 -0.540192,0.27561 -1.146529,0.27561 -1.218187,0 -1.94028,-0.81029 -0.71658,-0.8158 -0.71658,-2.22691 v -0.17088 q 0,-0.87092 0.319705,-1.54892 0.319705,-0.67799 0.915018,-1.05282 0.600825,-0.37483 1.416625,-0.37483 1.003213,0 1.664672,0.60083 0.666971,0.60083 0.711068,1.55994 H 74.26576 q -0.0441,-0.57878 -0.440972,-0.94809 -0.391364,-0.37483 -0.97014,-0.37483 -0.777214,0 -1.207163,0.56224 -0.424436,0.55673 -0.424436,1.61507 v 0.19292 q 0,1.03077 0.424436,1.5875 0.424436,0.55673 1.212675,0.55673 z"
       style="font-size:11.2889px;-inkscape-font-specification:Roboto;fill-rule:evenodd;stroke-width:1.19;stroke-linecap:round;stroke-linejoin:round"
       id="path2009" />
    <path
       d="m 77.512423,110.86639 v 1.48957 h -1.019751 v -8.46668 h 1.019751 v 5.1208 l 1.61782,-2.61828 h 1.140981 z"
       style="font-size:11.2889px;-inkscape-font-specification:Roboto;fill-rule:evenodd;stroke-width:1.19;stroke-linecap:round;stroke-linejoin:round"
       id="path2013" />
    <path
       id="path2015"
       style="font-size:11.2889px;-inkscape-font-specification:Roboto;fill:#0088ff;fill-opacity:1;fill-rule:evenodd;stroke-width:1.34393;stroke-linecap:round;stroke-linejoin:round"
       d="m 86.344453,103.88928 h -1.14098 l -4.35717,7.45659 -1.94355,-1.86397 -0.557929,0.9064 1.807979,1.69965 0.89897,0.85891 z" />
    <path
       d="m 92.523583,109.80934 q -0.14883,1.27331 -0.94258,1.96784 -0.78824,0.68902 -2.10013,0.68902 -1.42214,0 -2.28203,-1.01975 -0.85439,-1.01975 -0.85439,-2.72852 v -0.7717 q 0,-1.11897 0.39688,-1.96784 0.40239,-0.84887 1.1355,-1.30087 0.73312,-0.45751 1.69775,-0.45751 1.27882,0 2.05052,0.71658 0.7717,0.71107 0.89848,1.97336 h -1.06384 q -0.13781,-0.95912 -0.60083,-1.38907 -0.45751,-0.42995 -1.28433,-0.42995 -1.01424,0 -1.59302,0.74966 -0.57326,0.74965 -0.57326,2.1332 v 0.77722 q 0,1.30638 0.5457,2.07808 0.54571,0.7717 1.52687,0.7717 0.88195,0 1.35048,-0.39687 0.47404,-0.40239 0.62839,-1.39458 z"
       style="font-size:11.2889px;-inkscape-font-specification:Roboto;fill-rule:evenodd;stroke-width:1.19;stroke-linecap:round;stroke-linejoin:round"
       id="path2019" />
    <path
       d="m 94.827663,107.1139 q 0.678,-0.83234 1.7639,-0.83234 1.89067,0 1.9072,2.13321 v 3.94119 h -1.01975 v -3.94671 q -0.006,-0.64492 -0.29765,-0.9536 -0.28664,-0.30868 -0.89849,-0.30868 -0.49609,0 -0.87092,0.26458 -0.37482,0.26459 -0.58429,0.69454 v 4.24987 h -1.01974 v -8.46668 h 1.01974 z"
       style="font-size:11.2889px;-inkscape-font-specification:Roboto;fill-rule:evenodd;stroke-width:1.19;stroke-linecap:round;stroke-linejoin:round"
       id="path2021" />
    <path
       d="m 102.50059,112.4662 q -1.21268,0 -1.97336,-0.79375 -0.760667,-0.79926 -0.760667,-2.1332 v -0.18742 q 0,-0.88746 0.336237,-1.58199 0.34175,-0.70004 0.94809,-1.0914 0.61185,-0.39688 1.32292,-0.39688 1.16306,0 1.80799,0.76619 0.64492,0.76619 0.64492,2.19384 v 0.42443 h -4.04041 q 0.022,0.88195 0.51263,1.42765 0.49609,0.5402 1.25677,0.5402 0.54019,0 0.91502,-0.22049 0.37482,-0.22049 0.65594,-0.58429 l 0.62288,0.48507 q -0.74966,1.15204 -2.24896,1.15204 z m -0.12678,-5.34679 q -0.61736,0 -1.03629,0.452 -0.41892,0.44648 -0.51814,1.25677 h 2.98759 v -0.0772 q -0.0441,-0.77722 -0.41893,-1.20165 -0.37482,-0.42995 -1.01423,-0.42995 z"
       style="font-size:11.2889px;-inkscape-font-specification:Roboto;fill-rule:evenodd;stroke-width:1.19;stroke-linecap:round;stroke-linejoin:round"
       id="path2023" />
    <path
       d="m 108.3986,111.63387 q 0.5457,0 0.9536,-0.33073 0.4079,-0.33073 0.452,-0.82683 h 0.96463 q -0.0276,0.51263 -0.35278,0.97566 -0.32522,0.46302 -0.87092,0.73862 -0.54019,0.27561 -1.14653,0.27561 -1.21819,0 -1.94028,-0.81029 -0.71658,-0.8158 -0.71658,-2.22691 v -0.17087 q 0,-0.87093 0.3197,-1.54892 0.31971,-0.678 0.91502,-1.05282 0.60083,-0.37483 1.41663,-0.37483 1.00321,0 1.66467,0.60083 0.66697,0.60082 0.71107,1.55994 h -0.96463 q -0.0441,-0.57878 -0.44097,-0.9481 -0.39137,-0.37482 -0.97014,-0.37482 -0.77722,0 -1.20717,0.56224 -0.42443,0.55673 -0.42443,1.61506 v 0.19293 q 0,1.03077 0.42443,1.5875 0.42444,0.55673 1.21268,0.55673 z"
       style="font-size:11.2889px;-inkscape-font-specification:Roboto;fill-rule:evenodd;stroke-width:1.19;stroke-linecap:round;stroke-linejoin:round"
       id="path2025" />
    <path
       d="m 113.58003,109.59437 -0.63941,0.66697 v 2.09462 h -1.01975 v -8.46668 h 1.01975 v 5.1208 l 0.5457,-0.65595 1.8576,-1.96233 h 1.24023 l -2.32061,2.4915 2.59071,3.47266 h -1.19614 z"
       style="font-size:11.2889px;-inkscape-font-specification:Roboto;fill-rule:evenodd;stroke-width:1.19;stroke-linecap:round;stroke-linejoin:round"
       id="path2027" />
  </g>
</svg>
